<?xml version="1.0" encoding="UTF-8"?>
<svg version="1.1" xmlns="http://www.w3.org/2000/svg" width="300" height="94">
<path d="M0 0 C8.80367278 8.15718277 11.26387497 17.66709093 11.87109375 29.36328125 C11.37609375 30.35328125 11.37609375 30.35328125 10.87109375 31.36328125 C6.58886764 29.52804149 3.63845021 27.15928043 1.78125 22.8125 C1.50152344 21.90113281 1.22179687 20.98976563 0.93359375 20.05078125 C-1.69897639 12.36818358 -4.86377161 7.36651871 -12.12890625 3.36328125 C-18.5989464 0.35396025 -26.53587826 0.25922201 -33.31640625 2.42578125 C-39.61048074 5.20447943 -44.58749052 9.57409458 -47.56640625 15.80078125 C-50.81826564 24.34233192 -50.6209764 31.49167711 -47.04296875 39.921875 C-42.08220815 49.80038383 -34.69816204 58.2766234 -26.44140625 65.55078125 C-24.08109775 67.79571826 -23.22406502 68.83572105 -22.640625 72.0703125 C-22.63018668 74.55811121 -22.76611175 76.90434073 -23.12890625 79.36328125 C-26.73461732 78.77045038 -28.67320063 77.33586348 -31.37890625 74.92578125 C-32.0853125 74.30832031 -32.79171875 73.69085938 -33.51953125 73.0546875 C-35.12890625 71.36328125 -35.12890625 71.36328125 -35.12890625 69.36328125 C-35.78890625 69.36328125 -36.44890625 69.36328125 -37.12890625 69.36328125 C-48.41938926 58.71360944 -58.95716513 43.38950116 -59.44140625 27.55078125 C-59.208995 17.182657 -56.05203647 9.14853712 -49.12890625 1.36328125 C-34.88235484 -11.74946157 -15.12101975 -11.62515096 0 0 Z " fill="#FC5959" transform="translate(67.12890625,9.63671875)"/>
<path d="M0 0 C3.00455011 1.24672111 4.56057578 2.76192845 6.76953125 5.14453125 C10.80823524 9.37077042 15.00643994 13.23562771 19.45703125 17.01953125 C20.79040374 18.16531902 22.12373927 19.31114979 23.45703125 20.45703125 C24.44703125 21.30265625 25.43703125 22.14828125 26.45703125 23.01953125 C25.38302017 25.93470417 24.67892949 27.79763301 22.45703125 30.01953125 C21.46703125 30.01953125 20.47703125 30.01953125 19.45703125 30.01953125 C19.51503906 30.89996094 19.57304688 31.78039062 19.6328125 32.6875 C19.67792969 33.84894531 19.72304687 35.01039062 19.76953125 36.20703125 C19.82753906 37.35558594 19.88554688 38.50414062 19.9453125 39.6875 C19.30152802 44.08068529 17.89226352 45.27249627 14.45703125 48.01953125 C11.10717773 48.65063477 11.10717773 48.65063477 7.328125 48.6484375 C6.65660904 48.65084946 5.98509308 48.65326141 5.29322815 48.65574646 C3.88040228 48.65477116 2.46753669 48.64145266 1.05493164 48.61645508 C-1.10337309 48.58206464 -3.25759618 48.59582457 -5.41601562 48.61523438 C-6.79298611 48.60833706 -8.16994607 48.59866568 -9.546875 48.5859375 C-10.79283447 48.57506104 -12.03879395 48.56418457 -13.32250977 48.55297852 C-17.09902611 47.92742411 -18.26409536 47.03714713 -20.54296875 44.01953125 C-21.59273839 40.87022232 -21.6442847 38.63138669 -21.60546875 35.33203125 C-21.59644531 34.33816406 -21.58742188 33.34429687 -21.578125 32.3203125 C-21.56652344 31.56105469 -21.55492187 30.80179688 -21.54296875 30.01953125 C-22.47109375 29.58640625 -22.47109375 29.58640625 -23.41796875 29.14453125 C-25.54296875 28.01953125 -25.54296875 28.01953125 -27.54296875 26.01953125 C-27.52864264 22.76750361 -26.25150229 21.7155861 -23.98828125 19.35546875 C-22.88966129 18.35942471 -21.78233911 17.37292189 -20.66796875 16.39453125 C-19.48276108 15.33628665 -18.29787074 14.27768655 -17.11328125 13.21875 C-16.51547852 12.68813965 -15.91767578 12.1575293 -15.30175781 11.61083984 C-13.63289959 10.10089844 -12.01600272 8.55305257 -10.41015625 6.9765625 C-9.46398437 6.06261719 -8.5178125 5.14867187 -7.54296875 4.20703125 C-6.69734375 3.37558594 -5.85171875 2.54414062 -4.98046875 1.6875 C-2.54296875 0.01953125 -2.54296875 0.01953125 0 0 Z M-1.54296875 11.01953125 C-2.48269531 11.97666016 -2.48269531 11.97666016 -3.44140625 12.953125 C-4.25867188 13.77941406 -5.0759375 14.60570312 -5.91796875 15.45703125 C-6.73007812 16.28074219 -7.5421875 17.10445312 -8.37890625 17.953125 C-10.54296875 20.01953125 -10.54296875 20.01953125 -12.54296875 21.01953125 C-12.54296875 27.28953125 -12.54296875 33.55953125 -12.54296875 40.01953125 C-8.73042252 40.04635917 -4.91806263 40.06628602 -1.10546875 40.08203125 C-0.01685547 40.09041016 1.07175781 40.09878906 2.19335938 40.10742188 C3.74506836 40.11225586 3.74506836 40.11225586 5.328125 40.1171875 C6.2864624 40.12242432 7.2447998 40.12766113 8.23217773 40.13305664 C10.42988464 40.27006255 10.42988464 40.27006255 11.45703125 39.01953125 C12.76806544 28.60300049 12.76806544 28.60300049 9.58984375 18.9609375 C6.1931644 15.56982648 2.82767975 13.01439146 -1.54296875 11.01953125 Z " fill="#FC5959" transform="translate(69.54296875,40.98046875)"/>
<path d="M0 0 C4.12056136 4.12056136 5.39838318 8.88192535 5.75 14.625 C5.6571875 15.5840625 5.6571875 15.5840625 5.5625 16.5625 C3.5825 17.2225 1.6025 17.8825 -0.4375 18.5625 C0.8825 19.5525 2.2025 20.5425 3.5625 21.5625 C3.375 23.375 3.375 23.375 2.5625 25.5625 C-2.81652672 29.52700627 -7.99885737 29.32149231 -14.4375 28.5625 C-18.45160522 27.31819768 -20.8587699 25.34658594 -23.375 21.9375 C-25.10585779 16.43948115 -25.47617496 11.07718674 -23.25 5.6875 C-17.00546598 -1.63367782 -8.95149255 -3.74335143 0 0 Z M-13.4375 7.5625 C-13.4375 8.2225 -13.4375 8.8825 -13.4375 9.5625 C-10.7975 9.5625 -8.1575 9.5625 -5.4375 9.5625 C-6.0975 8.5725 -6.7575 7.5825 -7.4375 6.5625 C-11.2138932 6.2643576 -11.2138932 6.2643576 -13.4375 7.5625 Z M-13.4375 17.5625 C-12.4475 19.0475 -12.4475 19.0475 -11.4375 20.5625 C-8.9375 21.0625 -8.9375 21.0625 -6.4375 20.5625 C-5.7775 19.5725 -5.1175 18.5825 -4.4375 17.5625 C-7.4075 17.5625 -10.3775 17.5625 -13.4375 17.5625 Z " fill="#FC5959" transform="translate(238.4375,52.4375)"/>
<path d="M0 0 C2.87029869 1.79393668 4.49131638 2.98263276 6 6 C6.08471364 7.81341842 6.10721083 9.62994161 6.09765625 11.4453125 C6.09443359 12.52167969 6.09121094 13.59804687 6.08789062 14.70703125 C6.07951172 15.83496094 6.07113281 16.96289062 6.0625 18.125 C6.05798828 19.26066406 6.05347656 20.39632812 6.04882812 21.56640625 C6.03701615 24.37765638 6.02054507 27.1888023 6 30 C2.7 30 -0.6 30 -4 30 C-4.495 20.595 -4.495 20.595 -5 11 C-6.65 10.67 -8.3 10.34 -10 10 C-10.86419223 12.59257669 -11.17580932 14.34037707 -11.31640625 17.01171875 C-11.35830078 17.76904297 -11.40019531 18.52636719 -11.44335938 19.30664062 C-11.48267578 20.09232422 -11.52199219 20.87800781 -11.5625 21.6875 C-11.60568359 22.48478516 -11.64886719 23.28207031 -11.69335938 24.10351562 C-11.79927368 26.06881447 -11.90012551 28.03438496 -12 30 C-15.3 30 -18.6 30 -22 30 C-22 20.43 -22 10.86 -22 1 C-18.37 1 -14.74 1 -11 1 C-7.54260443 -0.72869779 -3.78024432 -0.48966895 0 0 Z " fill="#FC5959" transform="translate(204,51)"/>
<path d="M0 0 C3.31364924 3.06512555 5.2136419 5.68314463 6.00390625 10.1796875 C6.18161722 19.30218406 6.18161722 19.30218406 2.75 23.4375 C-0.64617613 26.88513334 -3.94532636 28.60104931 -8.8125 28.6875 C-13.52943042 28.54785403 -16.99683278 27.5524759 -20.5 24.3125 C-23.94668315 19.61155049 -25.25779496 15.15834681 -24.5 9.3125 C-22.86451232 5.14200641 -20.92730622 2.20428962 -17.5 -0.6875 C-11.65323045 -2.63642318 -5.56047738 -2.68094445 0 0 Z M-13.75 7.9375 C-15.99369241 10.98251113 -16.0518663 12.60711199 -15.5 16.3125 C-14.06222319 18.39727638 -12.90201761 19.12489178 -10.625 20.1875 C-7.3895789 20.37781889 -5.95258681 19.36737003 -3.5 17.3125 C-2.16449153 14.46622409 -2.16449153 14.46622409 -2.5 11.3125 C-4.56285219 8.33291215 -4.56285219 8.33291215 -7.5 6.3125 C-11.42212225 5.92217296 -11.42212225 5.92217296 -13.75 7.9375 Z " fill="#FC5959" transform="translate(52.5,23.6875)"/>
<path d="M0 0 C3.1875 1.5 3.1875 1.5 5 3 C4.61912394 5.20908114 4.07400952 6.87374847 2.9375 8.8125 C-0.31554229 10.80630011 -3.33858411 9.66025532 -7 9 C-6.31292969 9.25394531 -5.62585938 9.50789063 -4.91796875 9.76953125 C-4.01691406 10.11371094 -3.11585938 10.45789062 -2.1875 10.8125 C-1.29417969 11.14894531 -0.40085937 11.48539063 0.51953125 11.83203125 C2.99299278 12.99670054 4.39017522 13.80478439 6 16 C6.62262378 19.04580823 6.51472236 21.9393391 6 25 C4.12379387 27.50160818 2.76108697 28.61945652 0 30 C-2.26744274 30.14943856 -4.5403175 30.22144902 -6.8125 30.25 C-8.64748047 30.28867188 -8.64748047 30.28867188 -10.51953125 30.328125 C-14.19335454 29.98177129 -16.04424837 29.13940118 -19 27 C-17.57568513 23.93224489 -16.09219926 21.78959901 -14 19 C-10.7 19.99 -7.4 20.98 -4 22 C-4 21.34 -4 20.68 -4 20 C-4.67546875 19.90203125 -5.3509375 19.8040625 -6.046875 19.703125 C-13.22154648 18.5004344 -13.22154648 18.5004344 -16.625 16.3125 C-18.5893392 13.00883862 -18.46433533 10.78101628 -18 7 C-14.44928506 -0.98910862 -7.87212085 -0.80351529 0 0 Z " fill="#FC5959" transform="translate(264,51)"/>
<path d="M0 0 C3.3 0 6.6 0 10 0 C10 2.97 10 5.94 10 9 C12.31 9 14.62 9 17 9 C17 11.64 17 14.28 17 17 C14.69 17 12.38 17 10 17 C10.33 20.63 10.66 24.26 11 28 C12.98 28.33 14.96 28.66 17 29 C17 31.97 17 34.94 17 38 C15.10617836 38.13592021 13.20950296 38.2324094 11.3125 38.3125 C10.25675781 38.37050781 9.20101563 38.42851563 8.11328125 38.48828125 C5 38 5 38 2.125 36 C-0.67611675 32.04548223 -0.58581207 29.39267235 -0.3125 24.6875 C-0.28994141 23.94693359 -0.26738281 23.20636719 -0.24414062 22.44335938 C-0.1855815 20.62802643 -0.09590886 18.81374319 0 17 C-1.98 17 -3.96 17 -6 17 C-6 14.36 -6 11.72 -6 9 C-4.02 9 -2.04 9 0 9 C0 6.03 0 3.06 0 0 Z " fill="#FC5959" transform="translate(276,43)"/>
<path d="M0 0 C3.20667814 2.50373638 5.08893925 5.1258886 6.0234375 9.05078125 C6.0234375 11.36078125 6.0234375 13.67078125 6.0234375 16.05078125 C-0.9065625 16.05078125 -7.8365625 16.05078125 -14.9765625 16.05078125 C-11.78364472 21.05185866 -11.78364472 21.05185866 -8.90625 21.609375 C-4.47279411 21.50105218 -4.47279411 21.50105218 -0.9765625 19.05078125 C1.6484375 19.42578125 1.6484375 19.42578125 4.0234375 20.05078125 C4.0234375 24.05078125 4.0234375 24.05078125 2.2734375 26.30078125 C-2.71333317 28.98596546 -7.43421927 28.77924642 -12.9765625 28.05078125 C-17.25111073 26.1759794 -18.56159489 24.78389069 -20.8515625 20.73828125 C-22.55314162 15.16088304 -22.68225461 11.12222875 -20.2890625 5.80078125 C-16.2118809 -1.45379014 -7.65983416 -3.67853696 0 0 Z M-13.4140625 6.98828125 C-15.07720545 8.75237491 -15.07720545 8.75237491 -14.9765625 10.05078125 C-10.3565625 10.05078125 -5.7365625 10.05078125 -0.9765625 10.05078125 C-2.55492548 6.36700902 -2.55492548 6.36700902 -3.9765625 5.05078125 C-9.0948022 4.53324518 -9.0948022 4.53324518 -13.4140625 6.98828125 Z " fill="#FC5959" transform="translate(119.9765625,52.94921875)"/>
<path d="M0 0 C2.31 0 4.62 0 7 0 C8.98 5.28 10.96 10.56 13 16 C15.59395171 13.40604829 16.29880793 10.87398799 17.5625 7.4375 C19.90277778 1.09722222 19.90277778 1.09722222 21 0 C22.99958364 -0.04080783 25.00045254 -0.04254356 27 0 C26.30317918 4.23216911 24.951067 8.10657809 23.41796875 12.09375 C23.16251785 12.76289429 22.90706696 13.43203857 22.64387512 14.12145996 C22.1038638 15.53086228 21.56164007 16.93941869 21.01733398 18.34716797 C20.19148645 20.48965798 19.37970638 22.63714028 18.56835938 24.78515625 C18.03991882 26.15918381 17.51064904 27.5328928 16.98046875 28.90625 C16.74176559 29.54284546 16.50306244 30.17944092 16.25712585 30.83532715 C14.70753784 34.79000524 12.92500558 37.9086571 10 41 C7.421875 41.48828125 7.421875 41.48828125 4.75 41.3125 C3.85796875 41.26738281 2.9659375 41.22226563 2.046875 41.17578125 C1.03367188 41.08876953 1.03367188 41.08876953 0 41 C0.495 38.03 0.495 38.03 1 35 C2.65 35 4.3 35 6 35 C8.75191167 30.37678839 9.27842733 28.1906517 8 23 C6.75094998 19.55956394 5.35251883 16.18752765 3.9375 12.8125 C3.19185554 11.02932632 2.45075483 9.24424386 1.71484375 7.45703125 C1.38605225 6.67303955 1.05726074 5.88904785 0.71850586 5.08129883 C0 3 0 3 0 0 Z " fill="#FC5959" transform="translate(153,53)"/>
<path d="M0 0 C7.59 0 15.18 0 23 0 C23 5.82693704 21.31734669 7.58188037 17.625 11.625 C13.59368899 16.13681501 13.59368899 16.13681501 10 21 C14.29 21.33 18.58 21.66 23 22 C23 23.98 23 25.96 23 28 C15.41 28 7.82 28 0 28 C0 21.24919094 0 21.24919094 2.3359375 18.421875 C2.82320312 17.81859375 3.31046875 17.2153125 3.8125 16.59375 C4.328125 15.9853125 4.84375 15.376875 5.375 14.75 C6.13683594 13.81414062 6.13683594 13.81414062 6.9140625 12.859375 C8.86822451 10.47324034 10.81788243 8.18211757 13 6 C8.71 5.67 4.42 5.34 0 5 C0 3.35 0 1.7 0 0 Z " fill="#FC5959" transform="translate(129,53)"/>
<path d="M0 0 C0.721875 0.00257812 1.44375 0.00515625 2.1875 0.0078125 C2.909375 0.00523438 3.63125 0.00265625 4.375 0 C6.1875 0.1328125 6.1875 0.1328125 7.1875 1.1328125 C7.32865161 3.80340101 7.22997107 6.45713488 7.1875 9.1328125 C8.5075 9.4628125 9.8275 9.7928125 11.1875 10.1328125 C11.21439216 11.61188142 11.23384621 13.09108733 11.25 14.5703125 C11.26160156 15.39402344 11.27320312 16.21773437 11.28515625 17.06640625 C11.1875 19.1328125 11.1875 19.1328125 10.1875 20.1328125 C7.34414952 20.23268225 4.53052837 20.27159131 1.6875 20.2578125 C0.88957031 20.26167969 0.09164062 20.26554687 -0.73046875 20.26953125 C-6.68589233 20.25942017 -6.68589233 20.25942017 -7.8125 19.1328125 C-7.95365161 16.46222399 -7.85497107 13.80849012 -7.8125 11.1328125 C-6.1625 10.4728125 -4.5125 9.8128125 -2.8125 9.1328125 C-2.833125 7.8334375 -2.85375 6.5340625 -2.875 5.1953125 C-2.89649454 3.84115617 -2.88398199 2.48525167 -2.8125 1.1328125 C-1.8125 0.1328125 -1.8125 0.1328125 0 0 Z " fill="#FC5959" transform="translate(66.8125,58.8671875)"/>
</svg>
