<svg id="Layer_1" data-name="Layer 1" xmlns="http://www.w3.org/2000/svg" viewBox="0 0 200 100"><defs><style>.cls-1,.cls-2{fill:#fff;}.cls-2{font-size:10.68px;font-family:CenturyGothic, Century Gothic;}</style></defs><path class="cls-1" d="M80.12,3c2.58,5.81,9.41,9,15,11a89.1,89.1,0,0,0,30.35,5.36c4.74-.06,11.34-1,13.77-5.68,3.11-6-8.91-6.75-12.08-6.64-17.17.58-31.07,13.62-47,18.36a22.76,22.76,0,0,1-10.09.4c-.67-.11-2.65-1.27-2.8-1.16,1.47-1.12,4.07-1.25,5.85-1.3,6.07-.19,13.2,2.65,16.56,7.83a10.75,10.75,0,0,1,1.48,5.45c0-.25,1.1-1.18,1.08-1.75C92,27.83,86,24,79.69,22.28c-3.93-1-10.66-1.77-13,2.46-2.59,4.79,10.84,3,13.11,2.33,8.79-2.61,16.83-7.72,25-11.69C111.94,12,119.4,9.17,127.31,8.9c3.48-.12,7.52.48,10.26,2.79,3.69,3.1-3.54,4.81-5.65,5.28-4.69,1.06-9.52.59-14.22-.06a147.16,147.16,0,0,1-15.86-3C94.34,12,85.92,8.93,81.64,2a7,7,0,0,1-.46-.85c.11.24-1.28,1.36-1.06,1.84"/><path class="cls-1" d="M103.2,2.72C101.74,6,97.35,8.5,94.35,10.05c-4.84,2.52-10.31,3.86-15.6,5C69.58,17,59.08,19.24,50,16c-1.39-.5-6-2.85-3.79-4.72,3.44-2.9,9.4-2.55,13.52-2.07,7.38.87,14.35,4.06,20.94,7.31,8.08,4,16.12,9.07,25,11.17,3.79.9,10.58,1.45,12.24-3,1.75-4.74-12.71-2.26-14.45-1.68A17.09,17.09,0,0,0,93,32.33a11.57,11.57,0,0,0-.88,4.35c0-.29,1.05-1.16,1.07-1.75.32-8.34,10.56-11.73,17.65-11.51a14.22,14.22,0,0,1,4.64,1,3,3,0,0,1,1.35,1.06l.43-.27a6.19,6.19,0,0,1-1.91.66,21.41,21.41,0,0,1-10.86-.63C88.13,20.38,74.6,7.66,57,7.06c-4.61-.16-10.46,1-12.25,5.8C42.61,18.58,56.17,19.4,59,19.44c5,.07,10.13-1,15-1.85A88.17,88.17,0,0,0,89.2,13.66c5.62-2.06,11-5.36,14.07-10.64a14.91,14.91,0,0,0,.81-1.53c.34-.76-.77,1-.88,1.23"/><path class="cls-1" d="M53.35,60.3c-1.29,0-4.88,10.82-4.88,10.82s3.76-5.39,5.76-6.1c.6-.11,1.93,1.45,1.27,2.22-1.64.49-4.94,4.49-5.86,6.33a14.9,14.9,0,0,1-5.21,0c1.88-2.48,7.88-17.18,7.88-17.18a10,10,0,0,1,3.38,0c.26,2.09,6.93,16.47,7.67,17.18a9.18,9.18,0,0,1-4.07,0c-.59-3-4.53-13.31-5.94-13.27"/><path class="cls-1" d="M114.48,60.3c-1.29,0-4.88,10.82-4.88,10.82s3.76-5.39,5.76-6.1c.6-.11,1.93,1.45,1.28,2.22-1.65.49-5,4.49-5.87,6.33a14.9,14.9,0,0,1-5.21,0c1.88-2.48,7.88-17.18,7.88-17.18a10,10,0,0,1,3.38,0c.26,2.09,6.93,16.47,7.68,17.18a9.23,9.23,0,0,1-4.08,0c-.59-3-4.52-13.31-5.94-13.27"/><path class="cls-1" d="M169.14,77.6l.13.09c4.71,3,8.62,5,14.47,5.4,8,.48,15-1.06,15.56-6.54a4.83,4.83,0,0,0-1.23-3.82c-1.65-1.83-5.82-3.36-9.85-3.36s-8.79.47-18.82,5.2l-.16.07-.13-.12a11.42,11.42,0,0,1-1.74-2.07l-.26-.39h0c-2.59-4.11-8.25-16.46-8.78-19.19a8.42,8.42,0,0,0-1.62-.14,15.85,15.85,0,0,0-2.18.16c-.72,1.76-7.1,17.29-9.56,21a17.37,17.37,0,0,0,2.77.2,16.52,16.52,0,0,0,3.09-.25c1.2-2.27,5.18-7.15,7.34-7.89a1.1,1.1,0,0,0,0-1c-.31-.68-1-1.26-1.32-1.26-2.37.83-7,7.43-7,7.49l-1,1.49.57-1.72c1.06-3.19,4.66-13.62,6.32-13.67.56,0,1.13,1.11,3.15,5.45,1.2,2.58,2.7,5.8,4.37,8.85l.47.71a13.46,13.46,0,0,0,2.72,3.42l.29.26-.36.17c-5.24,2.11-8.18,3-11.43,4A47.2,47.2,0,0,1,146.36,82c-.38,0,.59.81,1.18.81a27.6,27.6,0,0,0,3.83-.36A66.14,66.14,0,0,0,169,77.66Zm14.36,2.9c-3.77-.4-7.75-1.15-11.49-4.09l-.28-.26.34-.17c7-3.45,10.17-3.32,13.09-3.64,3.47-.38,7.52.74,8.71,2.2a2.74,2.74,0,0,1,.65,2.45c-.71,2.8-7.08,3.8-11,3.51"/><path class="cls-1" d="M82.47,73.57s-.5-11.9-1.15-13.45c0-.1-5.23,12.16-5.45,13.45-.6.41-2.11,0-2.11,0s-4.89-13.06-5-13.63c0,.57-1.63,13.15-1.29,13.63a2.42,2.42,0,0,1-2.9,0c.79-2.48,2.19-17.16,2.19-17.16s2.39-1.12,4.29,0c-.13,1.14,3.08,10.43,4.26,12.32,0,.06,4.83-10.75,5-12.32a4.47,4.47,0,0,1,4,0c0,3.26,1.52,16.53,2.12,17.16-1,.71-3.92,0-3.92,0"/><path class="cls-1" d="M142.07,71.17c-2,1.83-4.09,2.4-8.57,2.4,0,0-4.13-.14-5.93,0,.59-1.26.79-15.24,0-17.16,2.58.07,5,0,5,0,4.52,0,7.19.6,9.45,2.43a7.57,7.57,0,0,1,2.6,6.2,7.9,7.9,0,0,1-2.54,6.13m-3.43-11c-1.11-1.09-2.36-1.49-4.51-1.49h-2.54V71.24h2.64c4.24,0,5.94-2,5.94-5.9,0-2.21-.28-4-1.53-5.18"/><path class="cls-1" d="M98.25,56.2H96.67s-7.18.32-8.26,0c-.57.24,0,2.4,0,2.4h1.88A133.57,133.57,0,0,1,90,74.06a12.78,12.78,0,0,0,4.26,0c-.23-.23-.41-3.83-.45-7.8,1.23,0,6.33-.05,6.33-.05,3.9,0,6.21-2.35,6.21-4.9,0-2.79-2.53-5.11-8.12-5.11m2.67,7.3c-.76.54-1.92.75-4.08.75H94V59.07l0-.47h3c3.69,0,5.06.93,5.06,2.74a2.6,2.6,0,0,1-1.12,2.16"/><path class="cls-1" d="M49.79,82c-3.57-.39-10.49-3.47-14.11-5.64,3-1.33,6.47-4,6.81-7.11a5.49,5.49,0,0,0-1.05-4.19c-1.71-1.87-5.6-2.85-10.27-2.85H29.66c-4.8,0-10-1.17-10.09-3.72a2.9,2.9,0,0,1,.88-2.11,5.79,5.79,0,0,1,4.17-1.5,8.89,8.89,0,0,1,1.15.08,26,26,0,0,1,3.52.77,30.36,30.36,0,0,0,4.73,1,10.86,10.86,0,0,0,5.16-1.09l.06,0,0-.06a4.09,4.09,0,0,0-1.34-1.18h0a7.38,7.38,0,0,1-1.23.1H35.51a22.45,22.45,0,0,1-6-.92,27.06,27.06,0,0,0-4-.8,20.28,20.28,0,0,0-2.17-.12,10.41,10.41,0,0,0-6.15,1.61,4.86,4.86,0,0,0-2,4c0,2.26,2.26,4.33,5.73,5.28a26.4,26.4,0,0,0,6.67,1.06c3.59,0,7.65.08,9.44,1.92a3.48,3.48,0,0,1,.94,2.62c0,2.7-2.44,4.67-4.66,5.62a.37.37,0,0,1-.16,0c-1.55,0-8.11-4.64-8.86-5.16-5.68-4-12.26-6.47-17.6-6.47-3.47,0-5.57,1.25-5.92,3.5-.8,5.24,9.12,9.34,12,10a47.17,47.17,0,0,0,10.87,1.44c1.34,0,4.29-.3,6.66-.53,1-.1,1.87-.19,2.44-.23,6.09,3.47,15.27,5.63,16,5.36C50.3,82,49.79,82,49.79,82M29.6,75.54a43.91,43.91,0,0,1-6.81.75,29.27,29.27,0,0,1-9.26-1.76l-.24-.07c-2.86-.92-7.36-3.59-7.26-6.82,0-1.33,1.23-2.13,3.2-2.13s6.45.9,15.68,7c0,0,3.32,2.27,4.69,3.06"/><path class="cls-1" d="M90.12,51.85s.9-11.89,0-17.2c.8-.76,2.35-.51,4.11,0-.7,3.18-.46,16.76,0,17.2a12.16,12.16,0,0,1-4.11,0"/><path class="cls-1" d="M125.68,51.85s.9-11.89,0-17.2c.8-.76,2.35-.51,4.1,0-.69,3.18-.45,16.76,0,17.2a12.11,12.11,0,0,1-4.1,0"/><path class="cls-1" d="M123.33,51.78s-4.32,2.79-7.76-4.33a6.22,6.22,0,0,0-3.89-3.57c3.92,0,6.24-2.36,6.24-4.93,0-2.8-2.54-5.13-8.16-5.13h-1.59s-6.17.33-7.26,0c-.57.25,0,2.42,0,2.42h.85a134.84,134.84,0,0,1-.27,15.53,12.89,12.89,0,0,0,4.28,0c-.23-.23-.41-3.85-.45-7.83.84,0,2.27.21,2.8.3,3.25.55,3.51,4.29,6.75,7a9.42,9.42,0,0,0,4.48,2.31,6.59,6.59,0,0,0,4.7-1.45,1.11,1.11,0,0,0-.72-.28m-15-9.87h-2.88V36.7l0-.47h3c3.7,0,5.08.93,5.08,2.74a2.6,2.6,0,0,1-1.13,2.18c-.76.55-1.92.76-4.1.76"/><path class="cls-1" d="M86.08,53.12l-.06,0a25.16,25.16,0,0,1-5.44-2.25c2.15-1.05,4.54-3,4.79-5.25a4.33,4.33,0,0,0-1.22-3.27c-1.38-1.5-4.17-2.26-8-2.16s-7.71-.79-7.76-2.54a1.89,1.89,0,0,1,.58-1.4,4.53,4.53,0,0,1,3.76-1,19.75,19.75,0,0,1,2.57.56,21.88,21.88,0,0,0,3.53.73,8.07,8.07,0,0,0,3.94-.83l.25-.13-.15-.24a3.31,3.31,0,0,0-1.06-.93l-.09,0h-.09a4.87,4.87,0,0,1-.87.07H80a16.69,16.69,0,0,1-4.41-.68,20.29,20.29,0,0,0-3-.59c-2.67-.29-4.92.12-6.29,1.14a3.79,3.79,0,0,0-1.59,3.15c0,1.78,1.73,3.39,4.4,4.12a19.65,19.65,0,0,0,5,.78c2.61,0,5.57.07,6.83,1.36a2.36,2.36,0,0,1,.63,1.79c0,1.89-1.73,3.28-3.35,4-.76,0-3.86-2-6.42-3.78-4.24-3-9.15-4.82-13.14-4.82-2.68,0-4.31,1-4.58,2.77-.66,4.31,7.5,7.29,9,7.65a34.85,34.85,0,0,0,8.08,1.07c1,0,3.19-.21,4.94-.39l1.74-.16c1.47.83,4.53,1.45,6.26,1.88,0,0,1.64.31,2.1-.24l0-.2Zm-11-3a42.75,42.75,0,0,1-4.48.42,21.17,21.17,0,0,1-6.78-1.28l-.18-.06c-2.2-.71-5.28-2.68-5.22-4.82,0-.87.81-1.38,2.16-1.38s4.69.67,11.47,5.12c0,0,1.88,1.29,3,2"/><text class="cls-2" transform="translate(28.29 95.54)">Trust . Innovation . Tradition</text></svg>